<svg width="1569" height="512" viewBox="0 0 1569 512" fill="none" xmlns="http://www.w3.org/2000/svg">
<path d="M843.4 230.8C843.4 238.933 841.533 246.4 837.8 253.2C834.067 259.867 828.333 265.267 820.6 269.4C812.867 273.533 803.267 275.6 791.8 275.6H770.6V326H736.4V185.6H791.8C803 185.6 812.467 187.533 820.2 191.4C827.933 195.267 833.733 200.6 837.6 207.4C841.467 214.2 843.4 222 843.4 230.8ZM789.2 248.4C795.733 248.4 800.6 246.867 803.8 243.8C807 240.733 808.6 236.4 808.6 230.8C808.6 225.2 807 220.867 803.8 217.8C800.6 214.733 795.733 213.2 789.2 213.2H770.6V248.4H789.2ZM927.605 327.4C914.405 327.4 902.271 324.333 891.205 318.2C880.271 312.067 871.538 303.533 865.005 292.6C858.605 281.533 855.405 269.133 855.405 255.4C855.405 241.667 858.605 229.333 865.005 218.4C871.538 207.467 880.271 198.933 891.205 192.8C902.271 186.667 914.405 183.6 927.605 183.6C940.805 183.6 952.871 186.667 963.805 192.8C974.871 198.933 983.538 207.467 989.805 218.4C996.205 229.333 999.405 241.667 999.405 255.4C999.405 269.133 996.205 281.533 989.805 292.6C983.405 303.533 974.738 312.067 963.805 318.2C952.871 324.333 940.805 327.4 927.605 327.4ZM927.605 296.2C938.805 296.2 947.738 292.467 954.405 285C961.205 277.533 964.605 267.667 964.605 255.4C964.605 243 961.205 233.133 954.405 225.8C947.738 218.333 938.805 214.6 927.605 214.6C916.271 214.6 907.205 218.267 900.405 225.6C893.738 232.933 890.405 242.867 890.405 255.4C890.405 267.8 893.738 277.733 900.405 285.2C907.205 292.533 916.271 296.2 927.605 296.2ZM1069.23 327.4C1058.96 327.4 1049.76 325.733 1041.63 322.4C1033.5 319.067 1026.96 314.133 1022.03 307.6C1017.23 301.067 1014.7 293.2 1014.43 284H1050.83C1051.36 289.2 1053.16 293.2 1056.23 296C1059.3 298.667 1063.3 300 1068.23 300C1073.3 300 1077.3 298.867 1080.23 296.6C1083.16 294.2 1084.63 290.933 1084.63 286.8C1084.63 283.333 1083.43 280.467 1081.03 278.2C1078.76 275.933 1075.9 274.067 1072.43 272.6C1069.1 271.133 1064.3 269.467 1058.03 267.6C1048.96 264.8 1041.56 262 1035.83 259.2C1030.1 256.4 1025.16 252.267 1021.03 246.8C1016.9 241.333 1014.83 234.2 1014.83 225.4C1014.83 212.333 1019.56 202.133 1029.03 194.8C1038.5 187.333 1050.83 183.6 1066.03 183.6C1081.5 183.6 1093.96 187.333 1103.43 194.8C1112.9 202.133 1117.96 212.4 1118.63 225.6H1081.63C1081.36 221.067 1079.7 217.533 1076.63 215C1073.56 212.333 1069.63 211 1064.83 211C1060.7 211 1057.36 212.133 1054.83 214.4C1052.3 216.533 1051.03 219.667 1051.03 223.8C1051.03 228.333 1053.16 231.867 1057.43 234.4C1061.7 236.933 1068.36 239.667 1077.43 242.6C1086.5 245.667 1093.83 248.6 1099.43 251.4C1105.16 254.2 1110.1 258.267 1114.23 263.6C1118.36 268.933 1120.43 275.8 1120.43 284.2C1120.43 292.2 1118.36 299.467 1114.23 306C1110.23 312.533 1104.36 317.733 1096.63 321.6C1088.9 325.467 1079.76 327.4 1069.23 327.4ZM1271.26 301.2H1218.86L1210.46 326H1174.66L1225.46 185.6H1265.06L1315.86 326H1279.66L1271.26 301.2ZM1262.46 274.8L1245.06 223.4L1227.86 274.8H1262.46ZM1438.32 230.8C1438.32 238.933 1436.46 246.4 1432.72 253.2C1428.99 259.867 1423.26 265.267 1415.52 269.4C1407.79 273.533 1398.19 275.6 1386.72 275.6H1365.52V326H1331.32V185.6H1386.72C1397.92 185.6 1407.39 187.533 1415.12 191.4C1422.86 195.267 1428.66 200.6 1432.52 207.4C1436.39 214.2 1438.32 222 1438.32 230.8ZM1384.12 248.4C1390.66 248.4 1395.52 246.867 1398.72 243.8C1401.92 240.733 1403.52 236.4 1403.52 230.8C1403.52 225.2 1401.92 220.867 1398.72 217.8C1395.52 214.733 1390.66 213.2 1384.12 213.2H1365.52V248.4H1384.12ZM1563.13 230.8C1563.13 238.933 1561.26 246.4 1557.53 253.2C1553.79 259.867 1548.06 265.267 1540.33 269.4C1532.59 273.533 1522.99 275.6 1511.53 275.6H1490.33V326H1456.13V185.6H1511.53C1522.73 185.6 1532.19 187.533 1539.93 191.4C1547.66 195.267 1553.46 200.6 1557.33 207.4C1561.19 214.2 1563.13 222 1563.13 230.8ZM1508.93 248.4C1515.46 248.4 1520.33 246.867 1523.53 243.8C1526.73 240.733 1528.33 236.4 1528.33 230.8C1528.33 225.2 1526.73 220.867 1523.53 217.8C1520.33 214.733 1515.46 213.2 1508.93 213.2H1490.33V248.4H1508.93Z" fill="#4B49AC"/>
<circle cx="175" cy="205" r="175" fill="#00ABB3"/>
<g clip-path="url(#clip0_205_8)">
<path d="M335 112C335 76.7 363.7 48 399 48C434.3 48 463 76.7 463 112V160H335V112ZM287 160H223C196.5 160 175 181.5 175 208V416C175 469 218 512 271 512H527C580 512 623 469 623 416V208C623 181.5 601.5 160 575 160H511V112C511 50.1 460.9 0 399 0C337.1 0 287 50.1 287 112V160ZM311 208C317.365 208 323.47 210.529 327.971 215.029C332.471 219.53 335 225.635 335 232C335 238.365 332.471 244.47 327.971 248.971C323.47 253.471 317.365 256 311 256C304.635 256 298.53 253.471 294.029 248.971C289.529 244.47 287 238.365 287 232C287 225.635 289.529 219.53 294.029 215.029C298.53 210.529 304.635 208 311 208ZM463 232C463 225.635 465.529 219.53 470.029 215.029C474.53 210.529 480.635 208 487 208C493.365 208 499.47 210.529 503.971 215.029C508.471 219.53 511 225.635 511 232C511 238.365 508.471 244.47 503.971 248.971C499.47 253.471 493.365 256 487 256C480.635 256 474.53 253.471 470.029 248.971C465.529 244.47 463 238.365 463 232Z" fill="#4B49AC"/>
</g>
<defs>
<clipPath id="clip0_205_8">
<rect width="448" height="512" fill="white" transform="translate(175)"/>
</clipPath>
</defs>
</svg>
