<svg width="623" height="512" viewBox="0 0 623 512" fill="none" xmlns="http://www.w3.org/2000/svg">
<circle cx="175" cy="205" r="175" fill="#00ABB3"/>
<g clip-path="url(#clip0_205_6)">
<path d="M335 112C335 76.7 363.7 48 399 48C434.3 48 463 76.7 463 112V160H335V112ZM287 160H223C196.5 160 175 181.5 175 208V416C175 469 218 512 271 512H527C580 512 623 469 623 416V208C623 181.5 601.5 160 575 160H511V112C511 50.1 460.9 0 399 0C337.1 0 287 50.1 287 112V160ZM311 208C317.365 208 323.47 210.529 327.971 215.029C332.471 219.53 335 225.635 335 232C335 238.365 332.471 244.47 327.971 248.971C323.47 253.471 317.365 256 311 256C304.635 256 298.53 253.471 294.029 248.971C289.529 244.47 287 238.365 287 232C287 225.635 289.529 219.53 294.029 215.029C298.53 210.529 304.635 208 311 208ZM463 232C463 225.635 465.529 219.53 470.029 215.029C474.53 210.529 480.635 208 487 208C493.365 208 499.47 210.529 503.971 215.029C508.471 219.53 511 225.635 511 232C511 238.365 508.471 244.47 503.971 248.971C499.47 253.471 493.365 256 487 256C480.635 256 474.53 253.471 470.029 248.971C465.529 244.47 463 238.365 463 232Z" fill="#4B49AC"/>
</g>
<defs>
<clipPath id="clip0_205_6">
<rect width="448" height="512" fill="white" transform="translate(175)"/>
</clipPath>
</defs>
</svg>
